<?xml version="1.0" standalone="no"?>
<!DOCTYPE svg PUBLIC "-//W3C//DTD SVG 20010904//EN"
 "http://www.w3.org/TR/2001/REC-SVG-20010904/DTD/svg10.dtd">
<svg version="1.0" xmlns="http://www.w3.org/2000/svg"
 width="774.000000pt" height="774.000000pt" viewBox="0 0 774.000000 774.000000"
 preserveAspectRatio="xMidYMid meet">
<metadata>
Created by potrace 1.14, written by Peter Selinger 2001-2017
</metadata>
<g transform="translate(0.000000,774.000000) scale(0.100000,-0.100000)"
fill="#000000" stroke="none">
<path d="M3953 7684 c5 -9 -34 -12 -146 -14 -144 -1 -177 -3 -272 -14 -22 -3
-65 -8 -95 -12 -58 -6 -112 -13 -145 -18 -11 -2 -27 -6 -35 -9 -13 -5 -47 -12
-115 -22 -11 -2 -20 -4 -20 -5 0 -2 -33 -10 -65 -15 -55 -10 -86 -18 -98 -28
-7 -5 -15 -7 -19 -4 -3 3 -21 0 -40 -8 -19 -8 -39 -13 -43 -10 -5 3 -11 1 -14
-3 -3 -5 -27 -15 -53 -22 -27 -7 -53 -17 -58 -21 -6 -4 -25 -11 -43 -14 -18
-3 -41 -10 -50 -14 -18 -10 -150 -62 -167 -66 -17 -4 -110 -47 -115 -54 -3 -3
-9 -6 -15 -7 -24 -3 -55 -17 -55 -26 0 -5 -4 -6 -10 -3 -5 3 -10 1 -10 -4 0
-6 -3 -10 -7 -9 -20 5 -378 -198 -394 -223 -3 -6 -10 -11 -15 -11 -18 -1 -240
-159 -256 -183 -4 -5 -8 -6 -8 -1 0 5 -10 -2 -23 -15 -13 -13 -43 -40 -66 -59
-108 -88 -410 -380 -394 -380 4 0 -3 -8 -13 -17 -10 -10 -41 -45 -69 -78 -27
-33 -54 -65 -60 -72 -55 -66 -125 -162 -125 -171 0 -5 -7 -13 -16 -16 -9 -4
-14 -9 -11 -13 4 -3 -3 -14 -14 -24 -11 -9 -20 -20 -19 -24 2 -7 -27 -48 -50
-73 -8 -9 -14 -18 -12 -21 1 -3 -4 -13 -12 -23 -8 -9 -12 -19 -9 -22 4 -3 1
-6 -5 -6 -7 0 -12 -4 -12 -9 0 -4 -23 -47 -50 -95 -28 -48 -50 -91 -50 -96 0
-6 -5 -10 -12 -10 -6 0 -8 -3 -5 -6 4 -4 -2 -19 -13 -34 -11 -16 -20 -34 -20
-42 0 -7 -7 -23 -15 -35 -15 -21 -12 -77 4 -70 9 5 50 -41 43 -47 -3 -3 0 -6
6 -6 7 0 12 -6 12 -14 0 -8 6 -16 13 -19 8 -3 22 -21 31 -41 9 -20 21 -36 26
-36 6 0 10 -9 10 -19 0 -11 5 -23 10 -26 11 -7 46 -87 41 -94 -1 -2 3 -7 9
-11 7 -4 13 -19 13 -34 1 -14 5 -26 8 -26 3 0 14 -37 25 -82 21 -90 26 -296
11 -398 -10 -66 -64 -237 -78 -245 -5 -4 -7 -11 -4 -16 4 -5 3 -9 -2 -9 -4 0
-14 -15 -22 -32 -19 -44 -73 -126 -110 -166 -17 -18 -31 -35 -31 -36 0 -2 -20
-24 -45 -48 -25 -25 -45 -44 -45 -42 0 4 -8 -3 -68 -53 -14 -12 -41 -30 -59
-40 -18 -10 -33 -21 -33 -26 0 -4 -4 -6 -9 -2 -5 3 -16 -2 -25 -10 -8 -9 -18
-15 -21 -14 -10 2 -70 -25 -77 -35 -3 -5 -4 -64 -1 -130 3 -67 6 -131 6 -143
1 -13 4 -23 8 -23 4 0 4 -13 -1 -30 -5 -17 -5 -30 -1 -30 4 0 8 -6 8 -12 2
-46 17 -153 40 -273 8 -44 17 -93 20 -110 8 -43 11 -60 13 -62 2 -2 4 -7 5
-13 1 -5 3 -11 5 -12 2 -3 5 -19 13 -61 10 -49 108 -358 117 -367 3 -3 6 -12
8 -20 1 -8 7 -25 12 -37 6 -13 14 -33 19 -45 20 -50 44 -105 67 -152 13 -28
24 -56 24 -63 0 -7 4 -13 10 -13 5 0 15 -18 21 -40 7 -22 16 -40 21 -40 5 0 6
-5 3 -10 -3 -6 -1 -10 5 -10 6 0 8 -5 5 -10 -3 -5 -1 -10 4 -10 6 0 11 -4 11
-9 0 -6 17 -38 37 -73 21 -35 38 -69 40 -77 1 -8 9 -18 17 -23 9 -5 16 -13 16
-19 0 -5 8 -22 18 -37 11 -15 38 -56 61 -91 52 -78 79 -116 109 -156 13 -16
30 -39 38 -50 25 -34 67 -81 60 -67 -4 6 -4 12 1 12 4 0 14 15 22 33 27 64 64
137 71 137 4 0 10 8 14 18 21 64 181 222 291 289 57 35 136 73 150 73 8 0 15
5 15 10 0 6 8 10 18 10 9 0 35 7 57 14 22 8 59 17 82 21 23 3 57 8 75 11 91
13 284 -2 373 -30 49 -15 101 -30 107 -30 4 -1 13 -7 20 -14 6 -6 20 -12 30
-12 10 0 18 -4 18 -9 0 -5 8 -11 18 -15 24 -8 80 -41 101 -60 10 -9 22 -16 27
-16 12 0 199 -190 188 -190 -5 -1 1 -9 14 -20 13 -10 23 -23 23 -27 1 -4 16
-34 35 -66 19 -32 34 -62 34 -67 0 -5 8 -24 18 -42 10 -18 22 -46 26 -63 4
-16 11 -48 17 -70 17 -73 20 -109 21 -230 0 -66 -1 -122 -2 -125 -6 -19 -11
-48 -11 -62 0 -10 -5 -18 -11 -18 -6 0 -6 -6 2 -15 10 -12 10 -15 0 -15 -7 0
-10 -7 -6 -15 3 -8 -2 -19 -12 -24 -11 -7 -12 -10 -4 -11 10 0 10 -3 -1 -15
-9 -8 -14 -23 -13 -32 2 -10 -1 -21 -6 -24 -5 -3 -10 -12 -11 -20 -2 -8 -15
-36 -30 -63 -15 -27 -27 -52 -27 -57 0 -5 -5 -9 -11 -9 -5 0 -7 -4 -4 -10 3
-5 1 -10 -5 -10 -6 0 -14 -8 -17 -17 -7 -18 -26 -43 -58 -77 -11 -12 -20 -24
-20 -27 0 -6 -82 -80 -130 -117 -17 -13 -25 -21 -18 -18 6 4 13 2 15 -3 3 -9
124 -62 146 -63 6 -1 12 -4 12 -8 0 -4 6 -7 13 -8 23 -1 56 -11 76 -22 12 -6
21 -9 21 -6 0 3 12 -1 27 -9 15 -8 30 -12 35 -9 4 3 8 1 8 -4 0 -5 12 -9 26
-9 15 0 29 -4 33 -9 3 -5 19 -10 36 -12 16 -2 35 -8 42 -14 7 -6 13 -8 13 -5
0 3 16 1 36 -5 46 -12 49 -13 169 -39 104 -22 109 -23 190 -33 28 -4 61 -9 75
-11 70 -12 237 -27 275 -25 17 1 37 1 45 0 40 -5 433 -3 490 3 36 3 90 9 120
12 30 4 111 15 179 26 132 22 142 24 181 33 14 3 36 8 50 10 14 2 45 9 70 16
25 7 54 14 65 16 11 1 20 3 20 4 0 2 13 5 52 14 12 2 31 10 43 16 12 6 24 9
27 6 4 -3 11 -2 17 3 11 8 76 31 99 35 7 1 17 4 22 7 6 4 28 12 50 19 22 7 54
18 70 25 17 7 55 23 85 35 30 12 93 41 140 63 47 22 88 41 92 41 17 2 31 28
40 73 10 52 15 75 18 83 1 3 2 8 1 12 0 4 6 26 15 50 9 24 17 48 18 53 6 26
82 171 93 178 7 4 13 13 13 20 0 7 14 27 31 44 16 18 26 33 22 33 -4 0 29 35
74 79 77 74 143 123 223 167 19 10 38 23 41 27 3 5 8 8 10 7 4 -1 20 4 91 31
77 30 216 51 348 54 117 2 160 8 160 24 0 5 13 21 72 91 31 36 87 110 127 168
24 34 48 62 53 62 5 0 7 4 4 9 -5 7 2 19 43 67 5 7 7 15 4 18 -4 3 -1 6 5 6 7
0 12 7 12 15 0 8 5 15 10 15 6 0 10 5 10 10 0 6 15 35 34 65 19 29 32 56 29
59 -4 3 -2 6 4 6 6 0 21 23 34 50 13 28 27 50 32 50 4 0 6 4 3 9 -3 5 1 14 9
21 8 7 13 16 10 20 -3 4 4 18 14 31 10 13 21 36 24 51 4 15 14 33 22 42 8 8
15 19 15 25 0 6 9 30 19 54 47 102 79 186 74 191 -4 3 -2 6 4 6 6 0 14 15 18
33 4 17 8 34 9 37 1 3 4 10 7 15 4 6 10 24 14 40 12 44 12 45 15 50 1 3 3 8 4
13 2 4 8 27 16 52 7 25 13 48 12 53 -1 4 3 7 9 7 5 0 8 4 5 8 -3 5 2 33 10 63
30 109 34 127 40 174 3 22 8 42 12 45 4 3 8 19 9 35 3 36 11 90 13 90 2 0 11
63 15 105 1 19 3 35 4 35 2 0 5 29 16 170 9 112 9 481 0 595 -7 104 -13 165
-15 165 -2 0 -12 89 -13 118 0 15 -3 27 -7 27 -3 0 -6 10 -7 23 0 12 -4 40 -8
62 -4 22 -8 48 -8 58 -1 9 -4 17 -8 17 -3 0 -5 14 -4 30 1 17 -1 30 -5 30 -3
0 -12 28 -19 63 -7 34 -22 94 -34 132 -12 39 -20 74 -19 79 2 4 -1 13 -6 20
-5 6 -12 23 -16 38 -3 15 -11 40 -17 55 -6 15 -11 30 -11 33 0 6 -25 74 -38
105 -68 162 -90 216 -90 225 0 5 -4 10 -10 10 -5 0 -9 3 -8 8 3 7 -81 182 -92
192 -3 3 -18 30 -34 60 -40 78 -124 213 -138 221 -7 5 -10 11 -6 14 6 6 -7 26
-38 59 -5 6 -13 19 -17 29 -3 9 -11 17 -17 17 -6 0 -8 5 -5 10 3 6 1 10 -4 10
-6 0 -11 6 -11 14 0 8 -7 17 -16 20 -9 4 -14 9 -11 13 4 3 -5 14 -18 25 -14
11 -25 24 -25 29 0 10 -4 15 -50 68 -49 57 -60 71 -60 81 0 6 -7 10 -17 10 -9
0 -14 3 -10 6 16 16 -411 434 -444 434 -5 0 -7 5 -4 10 3 6 -1 10 -9 10 -9 0
-16 5 -16 10 0 6 -5 10 -11 10 -6 0 -20 11 -31 26 -11 14 -22 23 -25 20 -3 -3
-15 4 -27 15 -11 11 -46 38 -76 60 -30 21 -60 44 -67 49 -7 6 -17 10 -23 10
-5 0 -10 4 -10 9 0 4 -20 19 -45 32 -25 13 -45 27 -45 31 0 5 -5 8 -11 8 -6 0
-30 14 -54 30 -24 17 -46 30 -48 30 -3 0 -36 19 -73 42 -38 23 -75 41 -81 41
-7 0 -13 3 -13 7 0 3 -16 12 -35 20 -19 8 -35 18 -35 23 0 5 -6 7 -12 5 -7 -3
-19 1 -26 9 -8 7 -18 11 -23 8 -5 -4 -9 -1 -9 5 0 6 -4 8 -10 5 -5 -3 -10 -2
-10 3 0 5 -18 15 -40 22 -22 7 -40 17 -40 22 0 4 -6 8 -12 8 -7 0 -58 17 -113
38 -103 40 -162 61 -180 65 -5 1 -12 5 -15 9 -3 4 -20 8 -38 10 -18 1 -32 5
-32 8 0 5 -60 24 -112 36 -5 1 -9 2 -10 4 -3 2 -34 10 -58 14 -8 2 -22 6 -30
9 -22 8 -72 18 -97 20 -13 1 -23 5 -23 9 0 4 -7 5 -15 2 -8 -4 -15 -2 -15 3 0
5 -10 9 -22 8 -13 -1 -33 2 -45 6 -12 4 -39 10 -60 13 -21 3 -87 13 -148 21
-60 9 -186 19 -280 22 -104 3 -176 10 -184 17 -11 8 -13 8 -8 0z m2797 -4164
c0 -5 -2 -10 -4 -10 -3 0 -8 5 -11 10 -3 6 -1 10 4 10 6 0 11 -4 11 -10z m24
-16 c-3 -15 -1 -23 5 -20 5 4 12 3 15 -2 2 -4 -6 -8 -19 -8 -20 0 -22 3 -14
18 5 10 7 18 4 18 -4 0 -3 5 0 10 11 17 14 11 9 -16z m36 12 c0 -3 -4 -8 -10
-11 -5 -3 -10 -1 -10 4 0 6 5 11 10 11 6 0 10 -2 10 -4z m-170 -90 c0 -2 -7
-7 -16 -10 -8 -3 -12 -2 -9 4 6 10 25 14 25 6z m20 -28 c0 -4 -7 -8 -15 -8 -8
0 -15 4 -15 8 0 5 7 9 15 9 8 0 15 -4 15 -9z"/>
</g>
</svg>
