<?xml version="1.0" encoding="UTF-8" standalone="no"?><svg xmlns="http://www.w3.org/2000/svg" xmlns:xlink="http://www.w3.org/1999/xlink" contentStyleType="text/css" height="587px" preserveAspectRatio="none" style="width:609px;height:587px;background:#FFFFFF;" version="1.1" viewBox="0 0 609 587" width="609px" zoomAndPan="magnify"><defs/><g><!--MD5=[a729edbb97e841ac7a29218e305ff428]
cluster LogicPackage--><g id="cluster_LogicPackage"><rect fill="#FFFFFF" height="500" rx="2.5" ry="2.5" style="stroke:#000000;stroke-width:1.0;" width="329" x="7" y="81"/><text fill="#000000" font-family="sans-serif" font-size="14" font-weight="bold" lengthAdjust="spacing" textLength="38" x="152.5" y="97.5332">Logic</text></g><!--MD5=[15636c1ca4a123c16a2a1a8e90aca7a9]
cluster Model--><g id="cluster_Model"><rect fill="#FFFFFF" height="95" rx="2.5" ry="2.5" style="stroke:#000000;stroke-width:1.0;" width="157" x="385" y="380"/><text fill="#000000" font-family="sans-serif" font-size="14" font-weight="bold" lengthAdjust="spacing" textLength="44" x="441.5" y="396.5332">Model</text></g><!--MD5=[c55b3b0e591a57f21b6daadc7a5e584c]
class AddressBookParser--><g id="elem_AddressBookParser"><rect codeLine="8" fill="#3333C4" height="27.2485" id="AddressBookParser" rx="2.5" ry="2.5" style="stroke:#FFFFFF;stroke-width:1.0;" width="137" x="23.5" y="191"/><text fill="#FFFFFF" font-family="Arial" font-size="15" lengthAdjust="spacing" textLength="131" x="26.5" y="210.0698">AddressBookParser</text></g><!--MD5=[20b3262af791fb1c285bffe8069ced12]
class XYZCommand--><g id="elem_XYZCommand"><rect codeLine="9" fill="#3333C4" height="27.2485" id="XYZCommand" rx="2.5" ry="2.5" style="stroke:#FFFFFF;stroke-width:1.0;" width="101" x="205.5" y="538"/><text fill="#FFFFFF" font-family="Arial" font-size="15" lengthAdjust="spacing" textLength="95" x="208.5" y="557.0698">XYZCommand</text></g><!--MD5=[8b8ed4d3c39d809e656c591f744ce388]
class CommandResult--><g id="elem_CommandResult"><rect codeLine="10" fill="#3333C4" height="27.2485" id="CommandResult" rx="2.5" ry="2.5" style="stroke:#FFFFFF;stroke-width:1.0;" width="117" x="202.5" y="264.5"/><text fill="#FFFFFF" font-family="Arial" font-size="15" lengthAdjust="spacing" textLength="111" x="205.5" y="283.5698">CommandResult</text></g><!--MD5=[521817ab83e81da341a3f4b5e91bae41]
class Command--><g id="elem_Command"><rect codeLine="11" fill="#3333C4" height="44.4971" id="Command" rx="2.5" ry="2.5" style="stroke:#FFFFFF;stroke-width:1.0;" width="75" x="218.5" y="415.5"/><text fill="#FFFFFF" font-family="Arial" font-size="15" lengthAdjust="spacing" textLength="63" x="224.5" y="434.5698">{abstract}</text><text fill="#FFFFFF" font-family="Arial" font-size="15" lengthAdjust="spacing" textLength="69" x="221.5" y="451.8184">Command</text></g><!--MD5=[42fa18dda7351a0ae87d9497de925436]
class Logic--><g id="elem_Logic"><rect codeLine="14" fill="#3333C4" height="44.4971" id="Logic" rx="2.5" ry="2.5" style="stroke:#FFFFFF;stroke-width:1.0;" width="98" x="222" y="117"/><text fill="#FFFFFF" font-family="Arial" font-size="15" lengthAdjust="spacing" textLength="92" x="225" y="136.0698">&lt;&lt;interface&gt;&gt;</text><text fill="#FFFFFF" font-family="Arial" font-size="15" lengthAdjust="spacing" textLength="35" x="253.5" y="153.3184">Logic</text></g><!--MD5=[ac54ce389d4d948eef4a4344659a3e1d]
class LogicManager--><g id="elem_LogicManager"><rect codeLine="15" fill="#3333C4" height="27.2485" id="LogicManager" rx="2.5" ry="2.5" style="stroke:#FFFFFF;stroke-width:1.0;" width="97" x="89.5" y="125.5"/><text fill="#FFFFFF" font-family="Arial" font-size="15" lengthAdjust="spacing" textLength="91" x="92.5" y="144.5698">LogicManager</text></g><!--MD5=[eef5f0b07d2fd263bed9c722d8c1c089]
class HiddenModel--><g id="elem_HiddenModel"><rect codeLine="19" fill="#FFFFFF" height="27.2485" id="HiddenModel" rx="2.5" ry="2.5" style="stroke:#FFFFFF;stroke-width:1.0;" width="89" x="428.5" y="424"/><text fill="#FFFFFF" font-family="Arial" font-size="15" lengthAdjust="spacing" textLength="83" x="431.5" y="443.0698">HiddenModel</text></g><rect fill="#FFFFFF" height="60.25" rx="2.5" ry="2.5" style="stroke:#181818;stroke-width:1.0;" width="76" x="355" y="248"/><text fill="#000000" font-family="sans-serif" font-size="16" lengthAdjust="spacing" textLength="56" x="365" y="266.6094">Storage</text><!--MD5=[f8dc820cca8808bdb695301f77a92b66]
class HiddenOutside--><g id="elem_HiddenOutside"><rect codeLine="25" fill="#FFFFFF" height="27.2485" id="HiddenOutside" rx="2.5" ry="2.5" style="stroke:#FFFFFF;stroke-width:1.0;" width="102" x="220" y="7"/><text fill="#FFFFFF" font-family="Arial" font-size="15" lengthAdjust="spacing" textLength="96" x="223" y="26.0698">HiddenOutside</text></g><g id="elem_GMN27"><path d="M352,530 L352,547.5 L306.5,551.5 L352,555.5 L352,572.7031 A0,0 0 0 0 352,572.7031 L602,572.7031 A0,0 0 0 0 602,572.7031 L602,540 L592,530 L352,530 A0,0 0 0 0 352,530 " fill="#FEFFDD" style="stroke:#181818;stroke-width:0.5;"/><path d="M592,530 L592,540 L602,540 L592,530 " fill="#FEFFDD" style="stroke:#181818;stroke-width:0.5;"/><text fill="#000000" font-family="sans-serif" font-size="13" lengthAdjust="spacing" textLength="225" x="358" y="548.4951">XYZCommand = AddPersonCommand,</text><text fill="#000000" font-family="sans-serif" font-size="13" lengthAdjust="spacing" textLength="151" x="397" y="564.8467">FindPersonCommand, etc</text></g><!--MD5=[f287eff34db650aad88860d6e0e6d9fb]
link HiddenOutside to Logic--><g id="link_HiddenOutside_Logic"><path codeLine="26" d="M271,34.41 C271,52.92 271,87.4 271,111.48 " fill="none" id="HiddenOutside-to-Logic" style="stroke:#101086;stroke-width:1.1;stroke-dasharray:7.0,7.0;"/><polygon fill="#101086" points="271,116.75,275,107.75,271,111.75,267,107.75,271,116.75" style="stroke:#101086;stroke-width:1.1;"/></g><!--MD5=[4143125d6d2dcbbb1f88caeeb45de3b4]
link LogicManager to Logic--><g id="link_LogicManager_Logic"><path codeLine="28" d="M186.58,139 C191.63,139 196.68,139 201.74,139 " fill="none" id="LogicManager-to-Logic" style="stroke:#101086;stroke-width:1.1;stroke-dasharray:7.0,7.0;"/><polygon fill="none" points="201.86,132,221.86,139,201.86,146,201.86,132" style="stroke:#101086;stroke-width:1.1;"/></g><!--MD5=[9257ec5b3c4c03061ea407052248a3ce]
link LogicManager to AddressBookParser--><g id="link_LogicManager_AddressBookParser"><path codeLine="29" d="M128.91,152.55 C121.79,162.37 111.82,176.13 104.04,186.88 " fill="none" id="LogicManager-to-AddressBookParser" style="stroke:#101086;stroke-width:1.1;"/><polygon fill="#101086" points="101.07,190.98,109.6006,186.0576,104.0126,186.9376,103.1326,181.3496,101.07,190.98" style="stroke:#101086;stroke-width:1.1;"/><text fill="#000000" font-family="sans-serif" font-size="13" font-weight="bold" lengthAdjust="spacing" textLength="7" x="96.2632" y="180.0219">1</text></g><!--MD5=[d500aa7151d93806e936bd667bbc980e]
link AddressBookParser to XYZCommand--><g id="link_AddressBookParser_XYZCommand"><path codeLine="30" d="M85.06,218.08 C71.42,244.55 44.12,307.56 64,356 C98.23,439.39 187.39,506.13 231.1,535 " fill="none" id="AddressBookParser-to-XYZCommand" style="stroke:#101086;stroke-width:1.1;stroke-dasharray:7.0,7.0;"/><polygon fill="#101086" points="235.44,537.84,230.1046,529.5615,231.2579,535.0995,225.7199,536.2528,235.44,537.84" style="stroke:#101086;stroke-width:1.1;"/><polygon fill="#000000" points="71.0926,351.7168,69.9762,342.272,64.6379,344.732,71.0926,351.7168" style="stroke:#000000;stroke-width:1.0;"/><text fill="#000000" font-family="sans-serif" font-size="13" font-weight="bold" lengthAdjust="spacing" textLength="46" x="78" y="352.4951">creates</text></g><!--MD5=[520da0335c5a8803876f267d9ec2ad91]
reverse link Command to XYZCommand--><g id="link_Command_XYZCommand"><path codeLine="32" d="M256,479.84 C256,500.42 256,523.84 256,537.88 " fill="none" id="Command-backto-XYZCommand" style="stroke:#101086;stroke-width:1.1;"/><polygon fill="none" points="249,479.57,256,459.57,263,479.57,249,479.57" style="stroke:#101086;stroke-width:1.1;"/></g><!--MD5=[a9e1a5717f5f63af61c3019fdb5e4d29]
reverse link Command to LogicManager--><g id="link_Command_LogicManager"><path codeLine="33" d="M213.74,412.49 C179.42,390.34 133.49,353.95 113,308 C102.14,283.64 99.97,271.26 113,248 C125.48,225.72 149.52,240.28 162,218 C173.98,196.62 158.81,168.51 147.71,152.54 " fill="none" id="Command-backto-LogicManager" style="stroke:#101086;stroke-width:1.1;stroke-dasharray:7.0,7.0;"/><polygon fill="#101086" points="218.29,415.39,212.8499,407.1799,214.0735,412.7028,208.5505,413.9264,218.29,415.39" style="stroke:#101086;stroke-width:1.1;"/><polygon fill="#000000" points="119.231,283.0219,119.8526,273.5317,114.1557,274.9787,119.231,283.0219" style="stroke:#000000;stroke-width:1.0;"/><text fill="#000000" font-family="sans-serif" font-size="13" font-weight="bold" lengthAdjust="spacing" textLength="57" x="127" y="283.4951">executes</text></g><!--MD5=[583ed1d0c45772f950f62e8f2bec1df7]
link LogicManager to Model--><g id="link_LogicManager_Model"><path codeLine="35" d="M175.85,152.51 C257.84,179.69 444.86,242.19 449,248 C464.46,269.73 456.35,282.37 449,308 C442.06,332.18 434,335.8 419,356 C416.18,359.79 414.21,359.83 412,364 C410.11,367.5638 408.3991,371.3275 406.8515,375.1906 C406.4647,376.1563 406.088,377.1283 405.7213,378.1049 C405.538,378.5932 405.3571,379.0827 405.1787,379.5731 C405.1341,379.6957 405.0897,379.8184 405.0454,379.9411 " fill="none" id="LogicManager-to-Model" style="stroke:#101086;stroke-width:1.1;"/><polygon fill="#101086" points="405.0454,379.9411,411.8631,372.8334,406.7427,375.238,404.3382,370.1177,405.0454,379.9411" style="stroke:#101086;stroke-width:1.1;"/></g><!--MD5=[90462986d69614cbc6d4bc0cb46f8efd]
link LogicManager to Storage--><g id="link_LogicManager_Storage"><path codeLine="36" d="M161.53,152.64 C204.47,175.71 296.06,224.92 350.27,254.05 " fill="none" id="LogicManager-to-Storage" style="stroke:#101086;stroke-width:1.1;"/><polygon fill="#101086" points="354.75,256.45,348.7146,248.667,350.3454,254.0838,344.9286,255.7145,354.75,256.45" style="stroke:#101086;stroke-width:1.1;"/></g><!--MD5=[ae0e345d33b432dd1a74f1b00fbf82aa]
link Storage to Model--><!--MD5=[894af96810da56d5af6f5fd9ee84a0d6]
reverse link Storage to Command--><!--MD5=[bfa7276062558292ff251f85fbc261be]
link Command to Model--><g id="link_Command_Model"><path codeLine="39" d="M293.73,437.5 C310.21,437.5 326.69,437.5 343.17,437.5 C351.41,437.5 359.65,437.5 367.89,437.5 C372.01,437.5 376.13,437.5 380.25,437.5 C381.28,437.5 382.31,437.5 383.34,437.5 C383.855,437.5 384.37,437.5 384.885,437.5 " fill="none" id="Command-to-Model" style="stroke:#101086;stroke-width:1.1;stroke-dasharray:7.0,7.0;"/><polygon fill="#101086" points="384.885,437.5,375.885,433.5,379.885,437.5,375.885,441.5,384.885,437.5" style="stroke:#101086;stroke-width:1.1;"/></g><!--MD5=[e956d43f58f30a24ce78a60af954e307]
link Logic to CommandResult--><g id="link_Logic_CommandResult"><path codeLine="42" d="M269.46,161.11 C267.5,188.01 264.13,234.06 262.3,259.25 " fill="none" id="Logic-to-CommandResult" style="stroke:#101086;stroke-width:1.1;stroke-dasharray:7.0,7.0;"/><polygon fill="#101086" points="261.93,264.3,266.5876,255.622,262.3015,259.3138,258.6097,255.0277,261.93,264.3" style="stroke:#101086;stroke-width:1.1;"/></g><!--MD5=[326ab9d23d3e7b599e2005f3db29a5f7]
link LogicManager to CommandResult--><g id="link_LogicManager_CommandResult"><path codeLine="43" d="M149.35,152.64 C171.68,177.52 221.32,232.8 246.19,260.51 " fill="none" id="LogicManager-to-CommandResult" style="stroke:#101086;stroke-width:1.1;stroke-dasharray:7.0,7.0;"/><polygon fill="#101086" points="249.68,264.39,246.6504,255.0187,246.3423,260.6672,240.6938,260.3591,249.68,264.39" style="stroke:#101086;stroke-width:1.1;"/></g><!--MD5=[a534c61ae9dd17e311f1526c83ae047b]
reverse link CommandResult to Command--><g id="link_CommandResult_Command"><path codeLine="44" d="M256.08,296.58 C253.08,308.22 249.54,323.89 248,338 C245.1,364.61 248.71,395.36 251.97,415.33 " fill="none" id="CommandResult-backto-Command" style="stroke:#101086;stroke-width:1.1;stroke-dasharray:7.0,7.0;"/><polygon fill="#101086" points="257.41,291.53,251.2557,299.2193,256.1403,296.3661,258.9935,301.2507,257.41,291.53" style="stroke:#101086;stroke-width:1.1;"/><polygon fill="#000000" points="253.1729,342.1788,249.9229,351.1168,255.7972,351.3201,253.1729,342.1788" style="stroke:#000000;stroke-width:1.0;"/><text fill="#000000" font-family="sans-serif" font-size="13" font-weight="bold" lengthAdjust="spacing" textLength="58" x="262" y="352.4951">produces</text></g><!--MD5=[1b465b457ecf78ea7cd4f935769f5022]
@startuml
!include style.puml
skinparam arrowThickness 1.1
skinparam arrowColor LOGIC_COLOR_T4
skinparam classBackgroundColor LOGIC_COLOR

package Logic as LogicPackage {

Class AddressBookParser
Class XYZCommand
Class CommandResult
Class "{abstract}\nCommand" as Command


Class "<<interface>>\nLogic" as Logic
Class LogicManager
}

package Model {
Class HiddenModel #FFFFFF
}

package Storage {
}

Class HiddenOutside #FFFFFF
HiddenOutside ..> Logic

LogicManager .right.|> Logic
LogicManager -right->"1" AddressBookParser
AddressBookParser ..> XYZCommand : creates >

XYZCommand -up-|> Command
LogicManager .left.> Command : executes >

LogicManager - -> Model
LogicManager - -> Storage
Storage - -[hidden] Model
Command .[hidden]up.> Storage
Command .right.> Model
note right of XYZCommand: XYZCommand = AddPersonCommand, \nFindPersonCommand, etc

Logic ..> CommandResult
LogicManager .down.> CommandResult
Command .up.> CommandResult : produces >
@enduml

@startuml








skinparam Package {
    BackgroundColor #FFFFFF
    BorderThickness 1
    FontSize 16
}

skinparam Class {
    FontColor #FFFFFF
    FontSize 15
    BorderThickness 1
    BorderColor #FFFFFF
    StereotypeFontColor #FFFFFF
    FontName Arial
}

skinparam Actor {
    BorderColor #000000
    Color #000000
    FontName Arial
}

skinparam Sequence {
    MessageAlign center
    BoxFontSize 15
    BoxPadding 0
    BoxFontColor #FFFFFF
    FontName Arial
}

skinparam Participant {
    FontColor #FFFFFFF
    Padding 20
}

skinparam ArrowFontStyle bold
skinparam MinClassWidth 50
skinparam ParticipantPadding 10
skinparam Shadowing false
skinparam DefaultTextAlignment center
skinparam packageStyle Rectangle

hide footbox
hide members
hide circle
skinparam arrowThickness 1.1
skinparam arrowColor #101086
skinparam classBackgroundColor #3333C4

package Logic as LogicPackage {

Class AddressBookParser
Class XYZCommand
Class CommandResult
Class "{abstract}\nCommand" as Command


Class "<<interface>>\nLogic" as Logic
Class LogicManager
}

package Model {
Class HiddenModel #FFFFFF
}

package Storage {
}

Class HiddenOutside #FFFFFF
HiddenOutside ..> Logic

LogicManager .right.|> Logic
LogicManager -right->"1" AddressBookParser
AddressBookParser ..> XYZCommand : creates >

XYZCommand -up-|> Command
LogicManager .left.> Command : executes >

LogicManager - -> Model
LogicManager - -> Storage
Storage - -[hidden] Model
Command .[hidden]up.> Storage
Command .right.> Model
note right of XYZCommand: XYZCommand = AddPersonCommand, \nFindPersonCommand, etc

Logic ..> CommandResult
LogicManager .down.> CommandResult
Command .up.> CommandResult : produces >
@enduml

PlantUML version 1.2022.7(Tue Aug 23 01:01:30 SGT 2022)
(GPL source distribution)
Java Runtime: Java(TM) SE Runtime Environment
JVM: Java HotSpot(TM) 64-Bit Server VM
Default Encoding: Cp1252
Language: en
Country: SG
--></g></svg>
